<svg width="512" height="512" viewBox="0 0 512 512" fill="none" xmlns="http://www.w3.org/2000/svg">
<g clip-path="url(#clip0_1_2)">
<path d="M231.993 238.108L114.375 138.553C109.571 134.533 103.94 131.62 97.8835 130.021C91.8265 128.422 85.4918 128.176 79.3293 129.301C73.1667 130.426 67.3276 132.895 62.2265 136.531C57.1255 140.167 52.8878 144.882 49.8144 150.341C46.7409 155.8 44.9072 161.868 44.4435 168.115C43.9797 174.363 44.8973 180.635 47.1311 186.488C49.3649 192.341 52.86 197.63 57.3682 201.979C61.8764 206.329 67.2871 209.632 73.216 211.655H73.6427L74.752 211.996L223.118 257.195C224.195 257.584 225.33 257.786 226.475 257.792C228.782 257.78 231.022 257.016 232.856 255.617C234.69 254.217 236.018 252.258 236.638 250.037C237.259 247.815 237.138 245.451 236.295 243.304C235.452 241.156 233.931 239.343 231.964 238.137L231.993 238.108Z" fill="url(#paint0_linear_1_2)"/>
<path d="M255.573 73.7564C255.607 68.1573 254.123 62.6537 251.278 57.831C248.433 53.0083 244.334 49.0469 239.417 46.3681C234.5 43.6893 228.949 42.3934 223.355 42.6182C217.76 42.8429 212.331 44.5799 207.644 47.6444L64 134.855C59.1158 138.039 54.9359 142.189 51.7181 147.051C48.5004 151.912 46.3132 157.382 45.2914 163.122C44.2696 168.862 44.435 174.75 45.7774 180.423C47.1197 186.097 49.6105 191.435 53.0961 196.108C56.5816 200.782 60.988 204.691 66.0431 207.595C71.0983 210.5 76.695 212.337 82.4879 212.994C88.2808 213.651 94.1469 213.114 99.7242 211.416C105.302 209.718 110.472 206.896 114.916 203.122L243.684 98.1902L244.708 97.3369C248.111 94.4217 250.844 90.8053 252.72 86.7352C254.595 82.6652 255.569 78.2378 255.573 73.7564Z" fill="url(#paint1_linear_1_2)"/>
<path d="M464.469 261.689L246.528 51.7973C243.577 48.8358 240.058 46.5011 236.182 44.9333C232.307 43.3656 228.154 42.5971 223.974 42.6741C219.794 42.751 215.673 43.6718 211.857 45.3812C208.042 47.0905 204.611 49.5532 201.771 52.6214C198.931 55.6895 196.74 59.2999 195.33 63.2358C193.921 67.1716 193.32 71.3518 193.566 75.5254C193.812 79.6989 194.898 83.7798 196.76 87.5231C198.622 91.2663 201.221 94.5947 204.402 97.3084L204.8 97.6498L436.338 292.722C439.393 295.284 443.116 296.921 447.07 297.44C451.024 297.958 455.043 297.337 458.655 295.649C462.268 293.96 465.323 291.276 467.462 287.91C469.6 284.544 470.733 280.638 470.727 276.651C470.727 273.867 470.173 271.11 469.099 268.542C468.025 265.974 466.451 263.644 464.469 261.689Z" fill="url(#paint2_linear_1_2)"/>
<path d="M472.935 276.958C472.584 273.106 471.171 269.426 468.853 266.328C466.536 263.231 463.404 260.837 459.806 259.414C456.209 257.991 452.288 257.593 448.478 258.266C444.668 258.939 441.12 260.656 438.228 263.226L188.412 417.294C183.437 420.438 179.168 424.578 175.87 429.452C172.573 434.326 170.32 439.83 169.252 445.617C168.185 451.404 168.326 457.349 169.666 463.079C171.007 468.809 173.519 474.2 177.043 478.912C180.568 483.625 185.029 487.557 190.146 490.462C195.264 493.368 200.927 495.183 206.78 495.794C212.633 496.405 218.549 495.799 224.156 494.014C229.763 492.228 234.941 489.302 239.363 485.419L465.647 294.968C468.229 292.78 470.241 289.998 471.51 286.861C472.78 283.724 473.269 280.326 472.935 276.958Z" fill="url(#paint3_linear_1_2)"/>
<rect x="224" y="170" width="64" height="256" rx="32" fill="white" class="imagi-i" />
<circle cx="256" cy="118" r="32" fill="white" class="imagi-i" />
</g>
<defs>
<linearGradient id="paint0_linear_1_2" x1="92.8427" y1="173.966" x2="235.435" y2="243.314" gradientUnits="userSpaceOnUse">
<stop offset="0.21" stop-color="#A028FE"/>
<stop offset="1" stop-color="#293896"/>
</linearGradient>
<linearGradient id="paint1_linear_1_2" x1="49.4364" y1="198.713" x2="235.947" y2="60.3875" gradientUnits="userSpaceOnUse">
<stop stop-color="#C931FF"/>
<stop offset="1" stop-color="#4628FE"/>
</linearGradient>
<linearGradient id="paint2_linear_1_2" x1="210.972" y1="61.3831" x2="455.879" y2="283.762" gradientUnits="userSpaceOnUse">
<stop offset="0.02" stop-color="#6731FF"/>
<stop offset="0.21" stop-color="#6C28FE"/>
<stop offset="0.86" stop-color="#0DC3FD"/>
</linearGradient>
<linearGradient id="paint3_linear_1_2" x1="442.427" y1="258.554" x2="192.524" y2="457.562" gradientUnits="userSpaceOnUse">
<stop offset="0.01" stop-color="#00D1FF"/>
<stop offset="0.604167" stop-color="#00FFC2"/>
</linearGradient>
<clipPath id="clip0_1_2">
<rect width="512" height="512" fill="white"/>
</clipPath>
</defs>
</svg>
